<svg xmlns="http://www.w3.org/2000/svg" width="30" height="30" viewBox="0 0 30 30">
  <g id="_edit-02_" data-name="[edit-02]" transform="translate(-7 -7)">
    <rect id="Rectangle_22" data-name="Rectangle 22" width="30" height="30" rx="5" transform="translate(7 7)" fill="rgba(255,255,255,0)"/>
    <path id="Union_50" data-name="Union 50" d="M1529,13522a.75.75,0,1,1,0-1.5h6.336a.75.75,0,0,1,0,1.5Zm-6.251,0a.75.75,0,0,1-.75-.75v-3.437a.759.759,0,0,1,.221-.529l10.14-10.141,2.664-2.664a1.684,1.684,0,0,1,2.352,0l2.148,2.148a1.68,1.68,0,0,1,0,2.349l-2.629,2.626-.035.038-10.14,10.143a.759.759,0,0,1-.533.218Zm.75-1.5h.887l-.887-.884Zm2.688-.322,9.079-9.069-2.374-2.374-9.081,9.078Zm10.141-10.13,2.134-2.132c.02-.02.041-.037.041-.115s-.02-.095-.041-.111l-2.148-2.152a.136.136,0,0,0-.112-.037.14.14,0,0,0-.115.037l-2.135,2.135Z" transform="translate(-1509 -13491.25)" fill="#ffa35d"/>
  </g>
</svg>
