<svg xmlns="http://www.w3.org/2000/svg" width="34" height="35" viewBox="0 0 34 35">
  <g id="ico-tools" transform="translate(-47 -105)">
    <rect id="Rectangle_110" data-name="Rectangle 110" width="34" height="35" transform="translate(47 105)" fill="rgba(239,239,239,0)"/>
    <path id="Union_70" data-name="Union 70" d="M21020.086,20176.713a1.808,1.808,0,0,1-1.3-.576l-2.8-2.773-4.738-4.727c-.66-.66-1.322-1.314-1.98-1.973a2.3,2.3,0,0,0-1.77-.709h-.184a4.289,4.289,0,0,1-2.266-.512,4.158,4.158,0,0,1-2.182-3.73,3.282,3.282,0,0,1,.1-.916h0c.076-.252.137-.271.326-.086q.771.759,1.535,1.525a1.348,1.348,0,0,0,2.078,0c.209-.209.422-.42.629-.633a1.315,1.315,0,0,0-.016-1.969v0l-1.637-1.627c-.221-.221-.2-.289.1-.379a4.243,4.243,0,0,1,5.342,3.424,4.4,4.4,0,0,1,.037.879h0a1.537,1.537,0,0,0-.02.3,2.386,2.386,0,0,0,.727,1.982c1.08,1.082,2.17,2.154,3.25,3.234.994.992,1.98,1.99,2.973,2.982l.32.32c.932.932,1.869,1.865,2.8,2.8a1.854,1.854,0,0,1-1.291,3.166Zm-13.482-2.047a.641.641,0,0,1-.26-.365c-.229-.717-.475-1.43-.707-2.146a.482.482,0,0,0-.387-.346h0c-.377-.078-.748-.162-1.119-.25a.511.511,0,0,0-.527.162c-.543.553-1.08,1.107-1.639,1.664a.343.343,0,0,1-.23.141.348.348,0,0,1-.262-.072l-1.752-.99a.331.331,0,0,1-.193-.18.314.314,0,0,1,0-.262c.193-.771.387-1.541.588-2.311a.458.458,0,0,0-.127-.469l-.838-.875a.44.44,0,0,0-.453-.131h0c-.764.174-1.531.344-2.293.514-.256.051-.355.008-.475-.227-.3-.582-.6-1.172-.9-1.758a.354.354,0,0,1-.076-.283.366.366,0,0,1,.168-.248c.561-.525,1.117-1.057,1.686-1.576a.524.524,0,0,0,.186-.521c-.066-.35-.135-.7-.193-1.051a.479.479,0,0,0-.334-.408c-.369-.119-.729-.266-1.09-.4l-1.373-.488v-.57a.811.811,0,0,0,.029-.137h0c.066-.547.127-1.09.191-1.643.039-.3.129-.377.41-.428.771-.143,1.539-.285,2.313-.42a.461.461,0,0,0,.381-.3h0c.119-.285.23-.576.361-.854a.5.5,0,0,0-.078-.557h0c-.463-.6-.914-1.2-1.373-1.8-.186-.236-.182-.328,0-.553l1.307-1.625c.186-.227.279-.248.561-.139l2.156.893a.512.512,0,0,0,.557-.057,3.269,3.269,0,0,1,.455-.309.68.68,0,0,0,.357-.787h0c-.076-.707-.117-1.42-.17-2.131a.326.326,0,0,1,.047-.268.322.322,0,0,1,.232-.143l2.074-.715c.262-.1.375-.059.539.182q.677.973,1.344,1.943a.482.482,0,0,0,.467.229,3.923,3.923,0,0,1,.586-.025.448.448,0,0,0,.484-.3c.342-.648.691-1.293,1.047-1.939a2.97,2.97,0,0,1,.244-.338h.252a.527.527,0,0,0,.109.047l2.025.482c.361.086.424.141.424.5.027.764.053,1.531.076,2.3a.478.478,0,0,0,.238.447c.156.088.316.172.465.264a.515.515,0,0,0,.584,0c.672-.383,1.348-.754,2.02-1.125a.374.374,0,0,1,.289-.086.353.353,0,0,1,.25.16l1.559,1.59a.378.378,0,0,1,.16.262.362.362,0,0,1-.094.291c-.393.664-.783,1.33-1.18,1.99a.477.477,0,0,0,0,.535,5.215,5.215,0,0,1,.279.5.5.5,0,0,0,.471.291h0c.789.045,1.576.1,2.367.15a.353.353,0,0,1,.258.084.341.341,0,0,1,.119.242c.086.389.178.818.256,1.166s.164.686.248,1.029v.252a2.206,2.206,0,0,1-.312.26h0c-.672.346-1.355.686-2.037,1.023a.446.446,0,0,0-.279.412c-.008.219-.02.443-.047.658a.552.552,0,0,0,.25.555c.635.451,1.262.92,1.895,1.385a.35.35,0,0,1,.182.426h0q-.393,1.087-.795,2.172a.366.366,0,0,1-.033.068l-4.25-4.242a7.278,7.278,0,0,0,.109-1.268,7.482,7.482,0,0,0-2.223-5.32,7.623,7.623,0,0,0-10.729.023,7.463,7.463,0,0,0,.053,10.637,7.9,7.9,0,0,0,6.879,2.033l2.111,2.111-.432.156a.534.534,0,0,0-.377.426c-.152.756-.314,1.51-.473,2.264-.055.258-.146.336-.412.361l-.35.047-.934.109Z" transform="translate(-20943.98 -20040.355)" fill="#fff"/>
  </g>
</svg>
