<svg xmlns="http://www.w3.org/2000/svg" width="34" height="35" viewBox="0 0 34 35">
  <g id="ico-Investors" transform="translate(-47 -103)">
    <rect id="Rectangle_110" data-name="Rectangle 110" width="34" height="35" transform="translate(47 103)" fill="rgba(239,239,239,0)"/>
    <path id="Union_51" data-name="Union 51" d="M22293.98,12119.521a5.074,5.074,0,1,1,3.576,1.478A5.025,5.025,0,0,1,22293.98,12119.521Zm1.119-3.543a.191.191,0,0,0,.057.246l2.244,2.244a.208.208,0,0,0,.156.078.205.205,0,0,0,.156-.078l2.246-2.244a.2.2,0,0,0,.061-.246.215.215,0,0,0-.213-.146h-1.387v-2.268a.208.208,0,0,0-.236-.229h-1.248a.21.21,0,0,0-.24.229v2.268h-1.383A.207.207,0,0,0,22295.1,12115.979Zm-.24,5.021h-14.838a2.023,2.023,0,0,1-2.021-2.021v-24.952a2.024,2.024,0,0,1,2.021-2.026h10.455a2.008,2.008,0,0,1,1.416.57l7.281,6.645c.035.033.1.106.135.134a1.9,1.9,0,0,1,.611,1.416v9.958a5.789,5.789,0,0,0-2.363-.5,5.726,5.726,0,0,0-2.686,10.78Zm-12.98-5.4a.318.318,0,0,0,.336.336h5.061a.336.336,0,0,0,0-.672h-5.061A.317.317,0,0,0,22281.879,12115.6Zm0-1.686a.317.317,0,0,0,.336.336h2.7a.335.335,0,1,0,0-.671h-2.7A.317.317,0,0,0,22281.879,12113.918Zm0-6.067a.317.317,0,0,0,.336.336h4.047a.317.317,0,0,0,.336-.336.322.322,0,0,0-.336-.341h-4.047A.322.322,0,0,0,22281.879,12107.851Zm0-1.689a.322.322,0,0,0,.336.341h11.8a.322.322,0,0,0,.336-.341.317.317,0,0,0-.336-.336h-11.8A.317.317,0,0,0,22281.879,12106.161Zm0-1.686a.317.317,0,0,0,.336.336h12.813a.336.336,0,0,0,0-.672h-12.812A.318.318,0,0,0,22281.879,12104.476Zm0-1.685a.318.318,0,0,0,.336.336h9.443a.336.336,0,0,0,0-.672h-9.443A.318.318,0,0,0,22281.879,12102.791Zm0-4.047a.317.317,0,0,0,.336.336h5.061a.336.336,0,0,0,0-.672h-5.061A.318.318,0,0,0,22281.879,12098.744Zm10.623-1.349a1.349,1.349,0,0,0,1.344,1.349h3.813l-5.156-4.685Z" transform="translate(-22226 -11986)" fill="#f9f9f9"/>
  </g>
</svg>
