<svg xmlns="http://www.w3.org/2000/svg" width="150" height="80" viewBox="0 0 150 80">
  <g id="ico-assignedleads" transform="translate(-513.5 -827)">
    <rect id="Rectangle_135" data-name="Rectangle 135" width="150" height="80" transform="translate(513.5 827)" fill="rgba(255,255,255,0)"/>
    <path id="Path_284" data-name="Path 284" d="M147.18,54.423a6.246,6.246,0,0,0-6.668-3.035V29.44l.844.692h0a1.756,1.756,0,0,0,1.137.375h.234a1.758,1.758,0,0,0,1.172-3.129l-3.949-3.211L115.6,4.481a2.2,2.2,0,0,0-2.461,0L84.958,27.4a1.769,1.769,0,0,0-.258,2.472,2.1,2.1,0,0,0,2.719.246l.855-.692V48.986a27.262,27.262,0,0,0-6.632,4.16l-6.808,3.515h0a1.762,1.762,0,0,0-.75,2.4l9.21,17.225a1.688,1.688,0,0,0,1.09.867,1.542,1.542,0,0,0,.457.071,1.738,1.738,0,0,0,.926-.269l6.878-4.266h.141a1.958,1.958,0,0,1,1.851,0c8.331,4.429,13.452,5.414,16.405,5.414a11.086,11.086,0,0,0,1.711-.129c1.617-.2,16.709-1.371,32.26-15.831l1.265-1.265a5.356,5.356,0,0,0,.9-6.457Zm-55.4-27.842L114.369,8.242l22.592,18.339V53.052l-3.633,2.062c-2.578,1.441-4.9,2.871-7.031,4.347-.352.234-.68.48-1.02.715h0a3.532,3.532,0,0,0,.27-.715,3.425,3.425,0,0,0,0-2.027,3.808,3.808,0,0,0-1.992-2.32V39.658a9.247,9.247,0,0,0-2.684-6.5,9.13,9.13,0,0,0-7.031-2.672,9.375,9.375,0,0,0-8.6,9.48v8.917a18.315,18.315,0,0,0-13.405-1.172Zm28.264,27.642h-.527c-8.753-.586-10.394-2.215-10.546-2.344l-.258-.281V39.963a5.859,5.859,0,0,1,5.3-5.941,5.66,5.66,0,0,1,4.371,1.629,5.733,5.733,0,0,1,1.664,4.031ZM85.508,72.972,78.044,58.946,81.97,56.93,89.41,70.57Zm58.25-14.554-1.172,1.172q-1.464,1.383-2.906,2.554l-.492.4c-13.851,11.214-26.576,11.812-26.717,11.812H112.2c-1.476.281-6,.363-15.9-4.9a5.469,5.469,0,0,0-2.578-.657,5.983,5.983,0,0,0-1.113.117l-3.867-7.206a3.611,3.611,0,0,1-.258-.469l-3.41-6.328a25.5,25.5,0,0,1,3.211-1.992A21.72,21.72,0,0,1,91.8,51.434a15.232,15.232,0,0,1,12.48.914,6.309,6.309,0,0,1,.925.644,8.977,8.977,0,0,1,1.172,1.1,6.459,6.459,0,0,0,2.344,1.617c2.274,1.008,5.777,1.652,10.546,1.981l.762.07a4.361,4.361,0,0,1,2.144.644,2.132,2.132,0,0,1-.726,1.032,5.355,5.355,0,0,1-.446.4,6.674,6.674,0,0,1-.972.668,17.215,17.215,0,0,1-11.718,1.781,18.821,18.821,0,0,1-2.6-.7,1.432,1.432,0,0,0-.492-.082,1.734,1.734,0,0,0-1.629.89,1.716,1.716,0,0,0-.2.563,1.793,1.793,0,0,0,.633,1.664,4.344,4.344,0,0,0,.879.434,13.7,13.7,0,0,0,3.515.82C121.072,66.972,127,63.152,127,63.152l.317-.2,5.636-3.515,2.062-1.289,1.91-1.078,3.012-1.688.164-.094h0a2.068,2.068,0,0,1,.34-.211,2.73,2.73,0,0,1,3.585,1.031,2.026,2.026,0,0,1-.269,2.309Z" transform="translate(477.625 825.896)" fill="#e4e7ec"/>
  </g>
</svg>
