<svg xmlns="http://www.w3.org/2000/svg" width="34" height="35" viewBox="0 0 34 35">
  <g id="ico-Brokers" transform="translate(-47 -105)">
    <rect id="Rectangle_110" data-name="Rectangle 110" width="34" height="35" transform="translate(47 105)" fill="rgba(239,239,239,0)"/>
    <path id="Subtraction_13" data-name="Subtraction 13" d="M22324.1,12020.564h0l-.215-.119-5.781-3.234-5.785-3.236-.215-.121v-13.412l.215-.121,5.785-3.234,5.781-3.234.215-.119.215.119,5.785,3.234h0l5.789,3.234.215.121v13.412l-.215.121-5.789,3.236h0l-5.785,3.234-.215.119Zm-2.18-13.309a7.679,7.679,0,0,0-2.5.84,3.322,3.322,0,0,0-1.43,1.424,7.29,7.29,0,0,0-.66,1.689l0,.029a.044.044,0,0,1,0,.014c-.035.375-.059.615-.059.711a.9.9,0,0,0,.172.461s0,0,0,.006l.086.07a23.054,23.054,0,0,0,13.16,0l.086-.07a.922.922,0,0,0,.176-.467c0-.1-.023-.336-.059-.711a.044.044,0,0,1,0-.014l-.008-.029a7.632,7.632,0,0,0-.652-1.684l0,0v-.006a3.249,3.249,0,0,0-1.379-1.363,7.948,7.948,0,0,0-2.434-.852l-.148.027a3.963,3.963,0,0,1-.988.42,4.077,4.077,0,0,1-2.18-.012,4.108,4.108,0,0,1-1.02-.451l-.148-.031Zm2.18-6.42a3.482,3.482,0,0,0-2.441.979,3.273,3.273,0,0,0,0,4.725,3.535,3.535,0,0,0,4.883,0,3.264,3.264,0,0,0,0-4.725A3.482,3.482,0,0,0,22324.1,12000.836Z" transform="translate(-22260.102 -11884.648)" fill="#f9f9f9"/>
  </g>
</svg>
