<svg xmlns="http://www.w3.org/2000/svg" width="170" height="16.007" viewBox="0 0 170 16.007">
  <g id="logo" transform="translate(-304.168 -57)">
    <path id="Path_409" data-name="Path 409" d="M18.955-10.56V4.806H15.416V-2.249l.116-4.726h-.047L11.691,4.806H8.455L4.66-6.975H4.614L4.73-2.249V4.806H1.168V-10.56h5.7L9.293-2.737,10.155.522H10.2l.885-3.236,2.4-7.846Zm15.9,0v9.1A6.359,6.359,0,0,1,33.122,3.42a7.275,7.275,0,0,1-5.134,1.618A7.282,7.282,0,0,1,22.866,3.42,6.335,6.335,0,0,1,21.12-1.457v-9.1h4.028v9.173a3.673,3.673,0,0,0,.71,2.468,2.675,2.675,0,0,0,2.13.815,2.7,2.7,0,0,0,2.154-.815,3.674,3.674,0,0,0,.71-2.468V-10.56Zm6.17,12.293,7.706-.023-.023,3.1H37.021l.023-15.366h3.981ZM59.86-10.56v3.1l-5.029-.023.023,12.293h-4V-7.464l-5.029-.023V-10.56Zm5.355,0V4.806h-4V-10.56ZM79.626-7.487l-7.939.023V-4.2H78.02L78-1.131l-6.309.023V4.806h-4l.023-15.366h11.92ZM77.9,4.806,83.3-10.56h4.8L93.478,4.806H89.358l-3-9.871-.675-2.421h-.047L85-5.089,81.931,4.806Zm3.515-3.469V-1.387h8.544V1.337Zm30.708-11.9V4.806h-3.539V-2.249l.116-4.726h-.047l-3.795,11.78h-3.236L97.832-6.975h-.047L97.9-2.249V4.806H94.34V-10.56h5.7l2.421,7.823.861,3.259h.047l.885-3.236,2.4-7.846Zm6.472,0V4.806h-4V-10.56Zm6.472,12.293,7.706-.023-.023,3.1H121.067l.023-15.366h3.981ZM144.534-10.56,139.11-.805V4.806h-4V-.805l-5.425-9.755h4.144l2.165,4.214,1.141,2.561,1.164-2.561,2.165-4.214Z" transform="translate(303 67.56)" fill="#e28132"/>
    <rect id="Rectangle_172" data-name="Rectangle 172" width="23.281" height="16.006" rx="2" transform="translate(450.887 57)" fill="#1d599f"/>
    <path id="Path_408" data-name="Path 408" d="M5.306-6.7a5.221,5.221,0,0,1,2.586.607A4.089,4.089,0,0,1,9.563-4.347,5.946,5.946,0,0,1,10.148-1.6a5.946,5.946,0,0,1-.585,2.743A4.089,4.089,0,0,1,7.892,2.885a5.221,5.221,0,0,1-2.586.607,5.264,5.264,0,0,1-2.593-.607A4.077,4.077,0,0,1,1.035,1.139,5.946,5.946,0,0,1,.45-1.6a5.946,5.946,0,0,1,.585-2.743A4.077,4.077,0,0,1,2.713-6.093,5.264,5.264,0,0,1,5.306-6.7Zm0,2.024a2.071,2.071,0,0,0-1.214.345,2.1,2.1,0,0,0-.749,1.027,4.9,4.9,0,0,0-.255,1.7A4.916,4.916,0,0,0,3.343.09a2.1,2.1,0,0,0,.749,1.034,2.071,2.071,0,0,0,1.214.345,2.036,2.036,0,0,0,1.207-.345A2.121,2.121,0,0,0,7.255.09,4.916,4.916,0,0,0,7.51-1.6a4.9,4.9,0,0,0-.255-1.7,2.122,2.122,0,0,0-.742-1.027A2.036,2.036,0,0,0,5.306-4.676ZM15.094-6.7a6.462,6.462,0,0,1,2.436.427,5.158,5.158,0,0,1,1.836,1.252L18.122-3.357a4.5,4.5,0,0,0-1.386-1.012,4.033,4.033,0,0,0-1.686-.337,2.8,2.8,0,0,0-.9.12.981.981,0,0,0-.495.33.8.8,0,0,0-.15.48.645.645,0,0,0,.292.532,2.628,2.628,0,0,0,.952.367l1.664.375a4.64,4.64,0,0,1,2.173,1A2.314,2.314,0,0,1,19.276.255a2.9,2.9,0,0,1-.54,1.776,3.272,3.272,0,0,1-1.484,1.094,5.923,5.923,0,0,1-2.158.367,8.015,8.015,0,0,1-1.889-.217,6.306,6.306,0,0,1-1.619-.622,5.064,5.064,0,0,1-1.214-.929L11.617,0a3.919,3.919,0,0,0,.922.772,5,5,0,0,0,1.2.532,4.609,4.609,0,0,0,1.327.195,3.119,3.119,0,0,0,.877-.1,1,1,0,0,0,.517-.315.777.777,0,0,0,.165-.495A.712.712,0,0,0,16.4.053a1.912,1.912,0,0,0-.854-.367l-1.829-.4a6.865,6.865,0,0,1-1.491-.517A2.622,2.622,0,0,1,11.2-2.106a2.372,2.372,0,0,1-.375-1.371,2.815,2.815,0,0,1,.51-1.656A3.4,3.4,0,0,1,12.8-6.28,5.7,5.7,0,0,1,15.094-6.7Z" transform="translate(452.62 66.612)" fill="#fff"/>
  </g>
</svg>
