<svg xmlns="http://www.w3.org/2000/svg" width="30" height="30" viewBox="0 0 30 30">
  <g id="_remove-02_" data-name="[remove-02]" transform="translate(-71 -7)">
    <rect id="Rectangle_22" data-name="Rectangle 22" width="30" height="30" rx="5" transform="translate(71 7)" fill="rgba(255,255,255,0)"/>
    <path id="ico-remove02" d="M3.674.75H-3.674A2.517,2.517,0,0,1-5.515-.007a2.516,2.516,0,0,1-.757-1.841V-12.6h12.5v10.75A2.517,2.517,0,0,1,5.472-.007,2.467,2.467,0,0,1,3.674.75ZM-4.771-11.1v9.25a1.038,1.038,0,0,0,.317.78,1.038,1.038,0,0,0,.78.317H3.674a.99.99,0,0,0,.737-.317,1.038,1.038,0,0,0,.317-.78V-11.1ZM7.174-13H-7.174v-3.348h3.662l.9-.9H2.609l.9.9H7.174ZM-5.674-14.5H5.674v-.348H2.891l-.9-.9H-1.988l-.9.9H-5.674Z" transform="translate(86 30)" fill="#ffa35d"/>
  </g>
</svg>
