<svg xmlns="http://www.w3.org/2000/svg" width="40" height="40" viewBox="0 0 40 40">
  <g id="ico-vacancy" transform="translate(-20 -65)">
    <rect id="Rectangle_173" data-name="Rectangle 173" width="40" height="40" rx="5" transform="translate(20 65)" fill="rgba(239,239,239,0)"/>
    <g id="noun-sale-3701408" transform="translate(-144.63 -29.63)">
      <path id="Path_419" data-name="Path 419" d="M184.63,100.38a14.25,14.25,0,1,0,3.861,27.971.57.57,0,1,0-.309-1.1,13.112,13.112,0,1,1,9.558-12.623c0,.429-.021.861-.062,1.285a.57.57,0,0,0,1.135.11c.045-.461.067-.93.067-1.4a14.266,14.266,0,0,0-14.25-14.25Z" transform="translate(0 0)" stroke="#000" stroke-width="0.2"/>
      <path id="Path_420" data-name="Path 420" d="M281.435,221.831a.569.569,0,0,0,.4-.167l9.83-9.83a.57.57,0,0,0-.806-.806l-9.83,9.83a.57.57,0,0,0,.4.973Z" transform="translate(-101.72 -101.716)" stroke="#000" stroke-width="0.2"/>
      <path id="Path_421" data-name="Path 421" d="M277.058,209.919a2.853,2.853,0,1,0-2.018-.835,2.845,2.845,0,0,0,2.018.835Zm-1.212-4.064a1.713,1.713,0,1,1-.5,1.212,1.708,1.708,0,0,1,.5-1.212Z" transform="translate(-95.587 -95.596)" stroke="#000" stroke-width="0.2"/>
      <path id="Path_422" data-name="Path 422" d="M356.721,283.85a2.854,2.854,0,1,0,2.018.836A2.832,2.832,0,0,0,356.721,283.85Zm1.212,4.066a1.714,1.714,0,1,1,0-2.424h0a1.717,1.717,0,0,1,0,2.424Z" transform="translate(-168.932 -168.914)" stroke="#000" stroke-width="0.2"/>
      <path id="Path_423" data-name="Path 423" d="M440.163,348.293h.183a.57.57,0,0,0,0-1.14h-6.035a.57.57,0,1,0,0,1.14h.183a4.311,4.311,0,0,0,1.37,2.93,4.31,4.31,0,0,0-1.37,2.93h-.183a.57.57,0,1,0,0,1.14h6.035a.57.57,0,0,0,0-1.14h-.183a4.311,4.311,0,0,0-1.37-2.93A4.31,4.31,0,0,0,440.163,348.293Zm-1.136,5.859h-3.4c.162-1.326.874-2.36,1.7-2.36S438.865,352.826,439.027,354.152Zm-3.4-5.859h3.4c-.162,1.326-.874,2.36-1.7,2.36S435.792,349.619,435.63,348.293Z" transform="translate(-242.467 -227.195)" stroke="#000" stroke-width="0.2"/>
    </g>
  </g>
</svg>
