<svg xmlns="http://www.w3.org/2000/svg" width="40" height="40" viewBox="0 0 40 40">
  <g id="ico-saleprice" transform="translate(-20 -65)">
    <rect id="Rectangle_173" data-name="Rectangle 173" width="40" height="40" rx="5" transform="translate(20 65)" fill="rgba(239,239,239,0)"/>
    <path id="Path_441" data-name="Path 441" d="M190.823,121.47H171.447a.646.646,0,0,1-.646-.646v-6.459a.646.646,0,1,1,1.292,0v5.813h18.084V102.094H172.093v5.813a.646.646,0,0,1-1.292,0v-6.459a.646.646,0,0,1,.646-.646h19.376a.646.646,0,0,1,.646.646v19.376a.646.646,0,0,1-.646.646Z" transform="translate(-141.135 -26.136)"/>
  </g>
</svg>
