<svg xmlns="http://www.w3.org/2000/svg" width="40" height="40" viewBox="0 0 40 40">
  <g id="ico-saleprice" transform="translate(-20 -65)">
    <rect id="Rectangle_173" data-name="Rectangle 173" width="40" height="40" rx="5" transform="translate(20 65)" fill="rgba(239,239,239,0)"/>
    <path id="noun-sale-3036821" d="M124.836,58.2a.57.57,0,0,0-.57.57v5.7a1.708,1.708,0,0,0,1.709,1.709h7.974a1.708,1.708,0,0,0,1.709-1.709v-5.7a.57.57,0,0,0-1.139,0v5.7a.569.569,0,0,1-.57.57H132.24V62.182a1.708,1.708,0,0,0-1.709-1.709h-1.139a1.708,1.708,0,0,0-1.709,1.709V65.03h-1.709a.57.57,0,0,1-.57-.57v-5.7a.569.569,0,0,0-.57-.57Zm3.987,3.987a.57.57,0,0,1,.57-.57h1.139a.569.569,0,0,1,.57.57V65.03h-2.278ZM123.3,58.024a.547.547,0,0,1,0-.8l3.884-3.9A2.836,2.836,0,0,1,129.2,52.5h1.527a2.837,2.837,0,0,1,2.016.831l3.884,3.9a.564.564,0,0,1-.8.8l-3.9-3.884a1.71,1.71,0,0,0-1.207-.5H129.2a1.71,1.71,0,0,0-1.207.5l-3.9,3.884a.547.547,0,0,1-.8,0Zm12.928,22.952H120.848V61.043a.569.569,0,0,0-.57-.57H105.471a.57.57,0,0,0-.479.888l2.278,3.417a.581.581,0,0,0,.479.251h1.709v1.139h-1.709a1.708,1.708,0,0,0-1.709,1.709V76.99a1.708,1.708,0,0,0,1.709,1.709h9.113a1.708,1.708,0,0,0,1.709-1.709V67.877a1.708,1.708,0,0,0-1.709-1.709h-1.709V65.029h4.556V80.977H105.471a.57.57,0,1,0,0,1.139h30.756a.57.57,0,0,0,0-1.139Zm-18.8-13.1V76.99a.569.569,0,0,1-.57.57h-9.113a.57.57,0,0,1-.57-.57V67.877a.57.57,0,0,1,.57-.57h9.113a.569.569,0,0,1,.57.57Zm-3.417-1.709H110.6V65.029h3.417Zm.57-2.278h-6.527l-1.527-2.278h13.18V63.89Zm-2.848,7.4a.569.569,0,0,0,.57.57,1.709,1.709,0,0,1,.57,3.315v.672a.57.57,0,0,1-1.139,0v-.57h-.57a.57.57,0,1,1,0-1.139h1.139a.57.57,0,1,0,0-1.139,1.709,1.709,0,0,1-.57-3.315v-.672a.57.57,0,0,1,1.139,0v.57h.57a.57.57,0,0,1,0,1.139h-1.139A.57.57,0,0,0,111.736,71.295ZM122.2,74.017a.569.569,0,0,1-.091-.8l4.556-5.7a.57.57,0,0,1,.888.706L123,73.926a.558.558,0,0,1-.8.091Zm0,5.7a.569.569,0,0,1-.091-.8l9.113-11.391a.57.57,0,0,1,.888.706L123,79.621a.558.558,0,0,1-.8.091Z" transform="translate(-80.795 17.692)"/>
  </g>
</svg>
