<svg xmlns="http://www.w3.org/2000/svg" width="40" height="40" viewBox="0 0 40 40">
  <g id="ico-caprate" transform="translate(-20 -65)">
    <rect id="Rectangle_173" data-name="Rectangle 173" width="40" height="40" rx="5" transform="translate(20 65)" fill="rgba(239,239,239,0)"/>
    <path id="Union_57" data-name="Union 57" d="M18026.5,12450a.5.5,0,0,1-.5-.5v-6a.5.5,0,0,1,.5-.5h20.5v-20.5a.5.5,0,0,1,.5-.5h6a.5.5,0,0,1,.5.5v27a.5.5,0,0,1-.5.5Zm.5-1h26v-26h-5v2h.5a.5.5,0,0,1,0,1h-.5v2h.5a.5.5,0,0,1,0,1h-.5v2h.5a.5.5,0,0,1,0,1h-.5v2h1.5a.5.5,0,0,1,0,1h-1.5v2h.5a.5.5,0,0,1,0,1h-.5v2h.5a.5.5,0,0,1,0,1h-.5v2h1.5a.5.5,0,0,1,0,1h-1.5v1.5a.5.5,0,0,1-1,0v-1.5h-2v.5a.5.5,0,0,1-1,0v-.5h-2v.5a.5.5,0,0,1-1,0v-.5h-2v1.5a.5.5,0,0,1-1,0v-1.5h-2v.5a.5.5,0,0,1-1,0v-.5h-2v.5a.5.5,0,0,1-1,0v-.5h-2v.5a.5.5,0,0,1-1,0v-.5h-2Zm14-8.5v-2.5h-5v2.5a.5.5,0,0,1-1,0v-2.5h-5v2.5a.5.5,0,0,1-1,0v-2.5h-2.5a.5.5,0,0,1,0-1h2.5v-5h-2.5a.5.5,0,0,1,0-1h2.5v-5h-2.5a.5.5,0,0,1,0-1h2.5v-2.5a.5.5,0,0,1,1,0v2.5h5v-2.5a.5.5,0,0,1,1,0v2.5h5v-2.5a.5.5,0,0,1,1,0v2.5h2.5a.5.5,0,0,1,0,1h-2.5v5h2.5a.5.5,0,0,1,0,1h-2.5v5h2.5a.5.5,0,0,1,0,1h-2.5v2.5a.5.5,0,0,1-1,0Zm-5-3.5h5v-5h-5Zm-6,0h5v-5h-5Zm6-6h5v-5h-5Zm-6,0h5v-5h-5Z" transform="translate(-18000.172 -12351.063)"/>
  </g>
</svg>
