<svg xmlns="http://www.w3.org/2000/svg" width="40" height="40" viewBox="0 0 40 40">
  <g id="ico-unitsf" transform="translate(-20 -65)">
    <rect id="Rectangle_173" data-name="Rectangle 173" width="40" height="40" rx="5" transform="translate(20 65)" fill="rgba(239,239,239,0)"/>
    <path id="Union_58" data-name="Union 58" d="M18054.943,12421.064v-1.42h-15.891v1.42a.723.723,0,0,1-1.445,0v-1.42h-1.293a2.293,2.293,0,0,1-2.316-2.271v-3.99a2.287,2.287,0,0,1,2.168-2.268v-3.28a3.866,3.866,0,0,1,3.9-3.834h13.857a3.875,3.875,0,0,1,3.9,3.834v3.28a2.288,2.288,0,0,1,2.166,2.268v3.99a2.291,2.291,0,0,1-2.312,2.271h-1.3v1.42a.721.721,0,0,1-1.441,0Zm-19.5-7.682v3.99a.857.857,0,0,0,.869.849h21.369a.857.857,0,0,0,.867-.849v-3.99a.856.856,0,0,0-.867-.85h-21.369A.856.856,0,0,0,18035.445,12413.383Zm20.939-2.271v-3.276a2.437,2.437,0,0,0-2.459-2.411h-13.857a2.437,2.437,0,0,0-2.461,2.411v3.276Zm-7.223-1.424a.765.765,0,0,1-.719-.711.714.714,0,0,1,.719-.711h4.334a.768.768,0,0,1,.721.711.716.716,0,0,1-.721.711Zm-8.664,0a.77.77,0,0,1-.723-.711.719.719,0,0,1,.723-.711h4.332a.769.769,0,0,1,.723.711.716.716,0,0,1-.723.711Z" transform="translate(-18006.998 -12328.005)"/>
  </g>
</svg>
