<svg xmlns="http://www.w3.org/2000/svg" width="20" height="20" viewBox="0 0 20 20">
  <g id="ico-streetview" transform="translate(-58.5 -90)">
    <rect id="Rectangle_177" data-name="Rectangle 177" width="20" height="20" rx="2.5" transform="translate(58.5 90)" fill="#ffead9"/>
    <path id="Union_61" data-name="Union 61" d="M17431.5,12969.153c0-1.5,1.586-2.872,4.037-3.5v.8a7.415,7.415,0,0,0-1.637.652c-1.033.578-1.629,1.322-1.629,2.049s.6,1.472,1.629,2.045a10.459,10.459,0,0,0,9.045,0c1.033-.573,1.629-1.322,1.629-2.045s-.6-1.471-1.629-2.049a7.466,7.466,0,0,0-1.643-.652v-.8c2.457.626,4.041,2,4.041,3.5,0,2.119-3.1,3.844-6.922,3.844S17431.5,12971.272,17431.5,12969.153Zm7.92,1.537a1,1,0,1,0-2,0h-.307a1,1,0,0,1-1-1v-5.18a1,1,0,0,1-.771-.972v-4.15a1,1,0,0,1,1-1h4.15a1,1,0,0,1,1,1v4.15a1,1,0,0,1-.766.977v5.175a1,1,0,0,1-1,1Zm-3.3-15.381a2.308,2.308,0,1,1,2.307,2.308A2.307,2.307,0,0,1,17436.113,12955.31Z" transform="translate(-17369.922 -12862.999)" fill="#e28132"/>
  </g>
</svg>
