<svg xmlns="http://www.w3.org/2000/svg" width="40" height="40" viewBox="0 0 40 40">
  <g id="ico-chat" transform="translate(-3 -3)">
    <rect id="Rectangle_100" data-name="Rectangle 100" width="40" height="40" rx="5" transform="translate(3 3)" fill="rgba(255,255,255,0)"/>
    <g id="Union_54" data-name="Union 54" transform="translate(-20593 -12990)" fill="#fff">
      <path d="M 20604.984375 13023.412109375 L 20605 13015.0009765625 L 20605 13006.0009765625 C 20605 13003.7939453125 20606.794921875 13001.9990234375 20609.001953125 13001.9990234375 L 20625 13001.9990234375 C 20627.20703125 13001.9990234375 20629.001953125 13003.7939453125 20629.001953125 13006.0009765625 L 20629.001953125 13014.9990234375 C 20629.001953125 13017.205078125 20627.20703125 13019 20625 13019 L 20609.634765625 13019 L 20609.185546875 13019 L 20608.88671875 13019.3349609375 C 20606.048828125 13022.525390625 20605.28125 13023.216796875 20605.08203125 13023.3662109375 C 20605.05859375 13023.3828125 20605.0234375 13023.3994140625 20604.984375 13023.412109375 Z" stroke="none"/>
      <path d="M 20605.98828125 13021.0439453125 C 20606.513671875 13020.4814453125 20607.2109375 13019.71484375 20608.140625 13018.6708984375 L 20608.736328125 13018 L 20625 13018 C 20626.65625 13018 20628.001953125 13016.6533203125 20628.001953125 13014.9990234375 L 20628.001953125 13006.0009765625 C 20628.001953125 13004.345703125 20626.65625 13002.9990234375 20625 13002.9990234375 L 20609.001953125 13002.9990234375 C 20607.345703125 13002.9990234375 20606 13004.345703125 20606 13006.0009765625 L 20606 13015.0029296875 L 20605.98828125 13021.0439453125 M 20604.8515625 13024.4345703125 C 20604.3984375 13024.4345703125 20603.984375 13024.197265625 20603.984375 13023.603515625 L 20604 13014.9990234375 L 20604 13006.0009765625 C 20604 13003.2353515625 20606.236328125 13000.9990234375 20609.001953125 13000.9990234375 L 20625 13000.9990234375 C 20627.759765625 13000.9990234375 20630.001953125 13003.2353515625 20630.001953125 13006.0009765625 L 20630.001953125 13014.9990234375 C 20630.001953125 13017.763671875 20627.759765625 13020 20625 13020 L 20609.634765625 13020 C 20607.92578125 13021.9208984375 20606.23828125 13023.755859375 20605.671875 13024.173828125 C 20605.447265625 13024.3369140625 20605.142578125 13024.4345703125 20604.8515625 13024.4345703125 Z" stroke="none" fill="#5e708a"/>
    </g>
    <path id="Path_416" data-name="Path 416" d="M9,1H0A1,1,0,0,1-1,0,1,1,0,0,1,0-1H9a1,1,0,0,1,1,1A1,1,0,0,1,9,1Z" transform="translate(17.5 24.5)" fill="#5e708a"/>
    <path id="Path_415" data-name="Path 415" d="M13,1H0A1,1,0,0,1-1,0,1,1,0,0,1,0-1H13a1,1,0,0,1,1,1A1,1,0,0,1,13,1Z" transform="translate(17.5 20.5)" fill="#5e708a"/>
    <path id="Path_414" data-name="Path 414" d="M5,1H0A1,1,0,0,1-1,0,1,1,0,0,1,0-1H5A1,1,0,0,1,6,0,1,1,0,0,1,5,1Z" transform="translate(17.5 16.5)" fill="#5e708a"/>
  </g>
</svg>
