<svg xmlns="http://www.w3.org/2000/svg" width="40" height="40" viewBox="0 0 40 40">
  <g id="ico-bell" transform="translate(-2 -3)">
    <rect id="Rectangle_174" data-name="Rectangle 174" width="40" height="40" rx="5" transform="translate(2 3)" fill="rgba(228,231,236,0)"/>
    <path id="Subtraction_18" data-name="Subtraction 18" d="M20565.33,13023.749a2.336,2.336,0,0,1-2.334-2.334h4.668A2.338,2.338,0,0,1,20565.33,13023.749Zm9.33-3.5H20556v-1.167l2.328-2.334v-5.83a8.287,8.287,0,0,1,1.373-4.74,6.457,6.457,0,0,1,3.883-2.633v-.8a1.745,1.745,0,0,1,3.49-.036,6.378,6.378,0,0,0-1.189,2.989,4.872,4.872,0,0,0-.555-.03c-2.752,0-4.674,2.159-4.674,5.251v7H20570v-5.308a6.45,6.45,0,0,0,2.334.433v3.708l2.328,2.334v1.166Z" transform="translate(-20544.5 -12989.811)" fill="#5e708a"/>
    <path id="Path_265" data-name="Path 265" d="M1802.189,41.214a3.857,3.857,0,1,0-3.859-3.857A3.859,3.859,0,0,0,1802.189,41.214Z" transform="translate(-1774.36 -20.628)" fill="#e28132"/>
  </g>
</svg>
