<svg xmlns="http://www.w3.org/2000/svg" width="40" height="40" viewBox="0 0 40 40">
  <g id="ico-asksf" transform="translate(-20 -65)">
    <rect id="Rectangle_173" data-name="Rectangle 173" width="40" height="40" rx="5" transform="translate(20 65)" fill="rgba(239,239,239,0)"/>
    <path id="Subtraction_19" data-name="Subtraction 19" d="M17790.783,12583.5a3.54,3.54,0,0,1-1.838-.675l-5.793-5.789a2.474,2.474,0,0,1-.652-1.819,3.574,3.574,0,0,1,.67-1.837l18.135-18.136a2.56,2.56,0,0,1,1.8-.742,2.116,2.116,0,0,1,1.645.725l5.826,5.824a2.482,2.482,0,0,1,.652,1.824,3.651,3.651,0,0,1-.67,1.837l-18.119,18.113A2.955,2.955,0,0,1,17790.783,12583.5Zm-4.449-11.452-2.266,2.266a1.106,1.106,0,0,0-.25.9,1.434,1.434,0,0,0,.123.567l.006.014,0,.008a.625.625,0,0,1,.047.136v.1l5.883,5.883a1.151,1.151,0,0,0,.814.349,1.124,1.124,0,0,0,.809-.349l18.154-18.149a1.107,1.107,0,0,0,.254-.9,1.413,1.413,0,0,0-.135-.586l-.01-.025-.008-.02a.4.4,0,0,1-.031-.1v-.1l-5.883-5.883a1.018,1.018,0,0,0-.719-.255,1.554,1.554,0,0,0-.443.1l-.035.012a1.279,1.279,0,0,1-.246.068h-.107l-2.518,2.517,2.445,2.445a.628.628,0,0,1,0,.921c-.1.1-.189.107-.365.107-.121,0-.443,0-.551-.107l-2.445-2.445-3.258,3.255,2.445,2.444a.618.618,0,0,1,.053.858,1.062,1.062,0,0,0-.26.107l-.045.021a.412.412,0,0,1-.115.042c-.121,0-.443,0-.549-.107l-2.445-2.449-3.26,3.259,2.445,2.445a.656.656,0,0,1,.2.46.637.637,0,0,1-.174.43,1.439,1.439,0,0,1-.395.139c-.121,0-.441,0-.549-.107l-2.445-2.445-3.26,3.254,2.445,2.445a.652.652,0,0,1,.2.461.636.636,0,0,1-.174.429,1.4,1.4,0,0,1-.393.139c-.121,0-.443,0-.551-.107Z" transform="translate(-17757.094 -12484.25)"/>
  </g>
</svg>
