<svg xmlns="http://www.w3.org/2000/svg" width="34" height="35" viewBox="0 0 34 35">
  <g id="ico-Owners" transform="translate(-47 -105)">
    <rect id="Rectangle_110" data-name="Rectangle 110" width="34" height="35" transform="translate(47 105)" fill="rgba(239,239,239,0)"/>
    <path id="ico" d="M22337.482,12178.671h-19.9a.894.894,0,0,1-.639-.269.914.914,0,0,1-.264-.646l.021-10.821h-1.8a.9.9,0,0,1-.9-.941.915.915,0,0,1,.3-.634l12.639-11.13a.9.9,0,0,1,.516-.229c.023,0,.045,0,.068,0a.9.9,0,0,1,.6.221l5.41,4.7v-1.606a.9.9,0,0,1,.9-.9h3.027a.877.877,0,0,1,.639.264.9.9,0,0,1,.264.633v5.9l2.41,2.147a.9.9,0,0,1,.051,1.3.885.885,0,0,1-.637.274h-1.824l.021,10.821a.921.921,0,0,1-.264.646A.883.883,0,0,1,22337.482,12178.671Zm-9.941-15.771a3,3,0,0,0-2.4.953,3.123,3.123,0,0,0-.623,2.068,3.84,3.84,0,0,0,1.139,2.8,2.474,2.474,0,0,1-.146.862.368.368,0,0,0-.02.037c-.012.027-.012.027-.045.043s-.057.028-.115.062a10.329,10.329,0,0,1-1.859.62c-.186.047-.383.1-.568.153a2.119,2.119,0,0,0-.975.51,1.708,1.708,0,0,0-.432,1.184v1.4a.707.707,0,0,0,.2.493.7.7,0,0,0,.494.2h10.691a.7.7,0,0,0,.494-.2.71.71,0,0,0,.207-.493v-1.368a3.823,3.823,0,0,0,.045.487l-.023-.269a2.326,2.326,0,0,0-.021-.266,1.631,1.631,0,0,0-.506-1.063,5.215,5.215,0,0,0-1.412-.757,10.407,10.407,0,0,1-1.918-.628c-.059-.034-.094-.052-.117-.062s-.031-.016-.047-.046a.072.072,0,0,1-.01-.013.121.121,0,0,0-.01-.02,2.6,2.6,0,0,1-.146-.863,3.825,3.825,0,0,0,1.145-2.8,3.128,3.128,0,0,0-.629-2.068A2.987,2.987,0,0,0,22327.541,12162.9Z" transform="translate(-22263.127 -12043.836)" fill="#f9f9f9"/>
  </g>
</svg>
