<svg xmlns="http://www.w3.org/2000/svg" width="40" height="40" viewBox="0 0 40 40">
  <g id="ico-unitsf" transform="translate(-20 -65)">
    <rect id="Rectangle_173" data-name="Rectangle 173" width="40" height="40" rx="5" transform="translate(20 65)" fill="rgba(239,239,239,0)"/>
    <path id="Path_417" data-name="Path 417" d="M119.319,29.12h4.534a1.644,1.644,0,0,1,1.64,1.64V47.3h.367a1.641,1.641,0,0,1,1.64,1.64v4.534a1.633,1.633,0,0,1-.48,1.157h0a1.637,1.637,0,0,1-1.158.481h-.367v.408a1.635,1.635,0,0,1-.481,1.157h0a1.639,1.639,0,0,1-1.158.481h-4.533a1.644,1.644,0,0,1-1.64-1.64v-.408H101.139a1.644,1.644,0,0,1-1.64-1.64V48.941a1.632,1.632,0,0,1,.481-1.157h0l0,0a1.631,1.631,0,0,1,1.155-.479H117.68V30.76a1.635,1.635,0,0,1,.481-1.158h0l0,0a1.632,1.632,0,0,1,1.154-.479Zm-1.093,2.745h2.082a.274.274,0,1,1,0,.548h-2.082v4.944h2.082a.273.273,0,1,1,0,.546h-2.082v4.944h2.082a.274.274,0,1,1,0,.547h-2.082V47.3h6.72V30.76a1.1,1.1,0,0,0-1.094-1.094h-4.534a1.088,1.088,0,0,0-.772.32h0a1.087,1.087,0,0,0-.32.772v1.1Zm6.528,15.983V49.93a.274.274,0,0,1-.547,0V47.848h-4.944V49.93a.273.273,0,1,1-.546,0V47.848h-4.945V49.93a.273.273,0,1,1-.546,0V47.848h-4.944V49.93a.273.273,0,0,1-.546,0V47.848H102.79V49.93a.273.273,0,0,1-.546,0V47.848h-1.106a1.088,1.088,0,0,0-.772.319h0a1.091,1.091,0,0,0-.319.772v4.534a1.093,1.093,0,0,0,1.093,1.093h24.721a1.093,1.093,0,0,0,1.094-1.093V48.941a1.093,1.093,0,0,0-1.094-1.093h-1.105Zm-5.435,8.767h4.534a1.094,1.094,0,0,0,.772-.319v0a1.088,1.088,0,0,0,.32-.771v-.408h-6.721v.408a1.1,1.1,0,0,0,1.093,1.093Z" transform="translate(-73.498 41.859)" stroke="#000" stroke-width="0.5"/>
  </g>
</svg>
