<svg id="ico-chat" xmlns="http://www.w3.org/2000/svg" width="20" height="20" viewBox="0 0 20 20">
  <rect id="Rectangle_177" data-name="Rectangle 177" width="20" height="20" rx="2.5" fill="rgba(255,234,217,0)"/>
  <path id="Union_66" data-name="Union 66" d="M0,14.893l.007-5.67h0V3.3A3.193,3.193,0,0,1,3.087,0h9.85a3.194,3.194,0,0,1,3.075,3.3V9.223a3.194,3.194,0,0,1-3.075,3.295H3.476a29,29,0,0,1-2.44,2.748.829.829,0,0,1-.5.174A.5.5,0,0,1,0,14.893Zm1.237-4.354L1.231,13.2c.215-.248.86-1.016,1.684-2H12.937A1.916,1.916,0,0,0,14.78,9.223V3.3a1.919,1.919,0,0,0-1.844-1.98H3.087A1.918,1.918,0,0,0,1.241,3.3V9.223h0Zm2.771-.988a.66.66,0,0,1,0-1.316H9.551a.66.66,0,0,1,0,1.316Zm0-2.637a.66.66,0,0,1,0-1.316h8a.66.66,0,0,1,0,1.316Zm0-2.633A.635.635,0,0,1,3.4,3.623a.635.635,0,0,1,.613-.658h3.08a.636.636,0,0,1,.613.658.636.636,0,0,1-.613.658Z" transform="translate(1.994 2.281)" fill="#e28132"/>
</svg>
