<svg id="ico-edit" xmlns="http://www.w3.org/2000/svg" width="20" height="20" viewBox="0 0 20 20">
  <rect id="Rectangle_177" data-name="Rectangle 177" width="20" height="20" rx="2.5" fill="rgba(255,234,217,0)"/>
  <path id="Union_50" data-name="Union 50" d="M6,15.437A.643.643,0,1,1,6,14.15h5.433a.643.643,0,0,1,0,1.286Zm-5.36,0A.643.643,0,0,1,0,14.791V11.843a.651.651,0,0,1,.189-.454l8.694-8.7L11.168.41a1.444,1.444,0,0,1,2.016,0l1.842,1.842a1.4,1.4,0,0,1,.41,1.006,1.392,1.392,0,0,1-.41,1.007L12.772,6.518l-.03.033-8.694,8.7a.651.651,0,0,1-.457.187Zm.643-1.286h.761l-.761-.758Zm2.3-.276L11.376,6.1,9.34,4.059,1.554,11.843Zm8.695-8.686,1.83-1.828c.017-.017.035-.032.035-.1s-.017-.081-.035-.1L12.274,1.318a.117.117,0,0,0-.1-.032.12.12,0,0,0-.1.032l-1.83,1.83Z" transform="translate(2.282 2.281)" fill="#e28132"/>
</svg>
