<svg xmlns="http://www.w3.org/2000/svg" width="150" height="80" viewBox="0 0 150 80">
  <g id="ico-brokers" transform="translate(44.365 3.635)">
    <rect id="Rectangle_137" data-name="Rectangle 137" width="150" height="80" transform="translate(-44.365 -3.635)" fill="rgba(255,255,255,0)"/>
    <path id="Path_279" data-name="Path 279" d="M51.012,35.773a1.425,1.425,0,1,0,2.851,0,20.458,20.458,0,0,0-20.44-20.44,1.425,1.425,0,0,0,0,2.851A17.608,17.608,0,0,1,51.012,35.773Z" transform="translate(2.452 -4.662)" fill="#e4e7ec"/>
    <path id="Path_280" data-name="Path 280" d="M62.757,41.537a1.43,1.43,0,0,0,1.425-1.425A30.791,30.791,0,0,0,33.423,9.365a1.425,1.425,0,1,0,0,2.851A27.931,27.931,0,0,1,61.332,40.111,1.421,1.421,0,0,0,62.757,41.537Z" transform="translate(2.452 -9)" fill="#e4e7ec"/>
    <path id="Path_281" data-name="Path 281" d="M32,22.734a1.43,1.43,0,0,0,1.425,1.425,7.285,7.285,0,0,1,7.284,7.27,1.425,1.425,0,0,0,2.851,0,10.135,10.135,0,0,0-10.135-10.12A1.421,1.421,0,0,0,32,22.734Z" transform="translate(2.452 -0.318)" fill="#e4e7ec"/>
    <g id="Path_282" data-name="Path 282" transform="translate(-14 -6.084)" fill="none" stroke-linecap="round" stroke-linejoin="round">
      <path d="M9.422,22.3A63.008,63.008,0,0,0,64.784,77.662c.3.028.6.057.912.057A7.928,7.928,0,0,0,70.971,75.7a8.11,8.11,0,0,0,2.737-6.072V61.9a8.105,8.105,0,0,0-7.07-8.011,35.269,35.269,0,0,1-4.062-.8,8.126,8.126,0,0,0-7.854,2.081l-5.089,5.089A51.055,51.055,0,0,1,26.826,37.437l5.089-5.089A8.15,8.15,0,0,0,34,24.495a38.358,38.358,0,0,1-.812-4.048,8.311,8.311,0,0,0-8.025-7.07h-7.7a8.14,8.14,0,0,0-6.086,2.737A7.882,7.882,0,0,0,9.422,22.3Z" stroke="none"/>
      <path d="M 17.46114349365234 16.37664794921875 C 15.99125671386719 16.37664794921875 14.59156799316406 17.00547027587891 13.62096405029297 18.10188293457031 C 13.61894226074219 18.10417175292969 13.61692047119141 18.10645294189453 13.61489105224609 18.10874176025391 C 12.67588806152344 19.16294097900391 12.233154296875 20.55908203125 12.40021514892578 21.93918609619141 C 12.40058898925781 21.94231414794922 12.40095520019531 21.94544982910156 12.40132141113281 21.94857025146484 C 15.67176055908203 49.70042037963867 37.34201431274414 71.37913513183594 65.10289764404297 74.67896270751953 C 65.33371734619141 74.70087432861328 65.53374481201172 74.71923065185547 65.69657897949219 74.71923065185547 C 66.89804077148438 74.71923065185547 68.06133270263672 74.27120971679688 68.97215270996094 73.45768737792969 C 68.97544860839844 73.45474243164062 68.97874450683594 73.45180511474609 68.9820556640625 73.44887542724609 C 70.07855224609375 72.47819519042969 70.70742034912109 71.08369445800781 70.70742034912109 69.6229248046875 L 70.70742034912109 61.8972282409668 C 70.70742034912109 59.35136413574219 68.82184600830078 57.23335266113281 66.22229766845703 56.85766983032227 C 64.75626373291016 56.65863418579102 63.27700805664062 56.36777496337891 61.82711029052734 55.99357223510742 C 61.36457824707031 55.87451553344727 60.89548873901367 55.81415176391602 60.43287658691406 55.81415176391602 C 59.06966781616211 55.81415176391602 57.7945442199707 56.33852767944336 56.84237670898438 57.29070663452148 L 51.75366973876953 62.3794059753418 C 50.84103393554688 63.29204177856445 49.44697952270508 63.5186767578125 48.29225540161133 62.942138671875 C 37.9109992980957 57.75901794433594 29.33424377441406 49.17717361450195 24.14192199707031 38.77748489379883 C 23.56538772583008 37.62274932861328 23.79203414916992 36.22870635986328 24.70465469360352 35.31607437133789 L 29.79337692260742 30.22735214233398 C 31.08651733398438 28.93421173095703 31.55822372436523 27.1143684387207 31.0881233215332 25.23329162597656 C 30.7237548828125 23.81993103027344 30.42992401123047 22.35517883300781 30.21474456787109 20.87950897216797 C 30.2144660949707 20.87764739990234 30.21419906616211 20.87579345703125 30.21393203735352 20.87393951416016 C 29.85707855224609 18.39412689208984 27.5891227722168 16.37664794921875 25.15829086303711 16.37664794921875 L 17.46114349365234 16.37664794921875 M 17.46114349365234 13.37664794921875 L 25.15829086303711 13.37664794921875 C 29.09237670898438 13.37664794921875 32.61310195922852 16.48394775390625 33.18334579467773 20.44662475585938 C 33.38287734985352 21.81499481201172 33.65365600585938 23.16912841796875 33.99580001831055 24.49468231201172 C 34.7227783203125 27.38836288452148 33.95301055908203 30.31035995483398 31.91469955444336 32.34867095947266 L 26.82597732543945 37.43739318847656 C 31.74362182617188 47.28693008422852 39.78284454345703 55.34045028686523 49.63234329223633 60.25808334350586 L 54.72105407714844 55.16938400268555 C 56.75936126708984 53.13106536865234 59.69570159912109 52.34717178344727 62.57493591308594 53.08827209472656 C 63.90061187744141 53.43041610717773 65.26896667480469 53.70119476318359 66.63734436035156 53.88649368286133 C 70.728271484375 54.47096252441406 73.70742034912109 57.84916305541992 73.70742034912109 61.8972282409668 L 73.70742034912109 69.6229248046875 C 73.70742034912109 71.94632720947266 72.70955657958984 74.15571594238281 70.97058868408203 75.69515228271484 C 69.50241088867188 77.00648498535156 67.61945343017578 77.71923065185547 65.69657897949219 77.71923065185547 C 65.38298797607422 77.71923065185547 65.08364868164062 77.69065856933594 64.78430938720703 77.66220855712891 C 35.62089920043945 74.21281433105469 12.85707855224609 51.44910430908203 9.421943664550781 22.2996826171875 C 9.151054382324219 20.06172943115234 9.863815307617188 17.80961608886719 11.37468719482422 16.11336517333984 C 12.91410064697266 14.37440490722656 15.13771057128906 13.37664794921875 17.46114349365234 13.37664794921875 Z" stroke="none" fill="#e4e7ec"/>
    </g>
  </g>
</svg>
